# File created by Blade
# Date/Time:  Thu Sep 25 15:41:58 2014
# Frame Rate: 120.000 fps
#------------------------------------------------------
:FULLY-SPECIFIED
:DEGREES
197
root 19.923109 32.782486 1.774791 159.697966 -79.714677 -140.618270
Spine -4.700516 13.817650 0.837224
Head 2.392625 -11.748165 6.633005
LeftShoulder -7.415221 25.826339 12.083165
LeftArm 31.297962 31.879817 -63.225350
LeftForeArm 0.769154 -0.000000 19.552481
LeftHand -26.190634 -0.000000 2.213728
LeftHandThumb1 -26.253704 0.000000 33.147579
RightShoulder -13.087300 11.996668 -23.511649
RightArm -1.820902 -38.871416 90.260434
RightForeArm -24.182612 -0.000000 24.367738
RightHand -3.665071 0.000000 1.472053
RightHandThumb1 -24.326973 -0.000000 -32.862282
LeftUpLeg -28.387822 -2.378496 7.968518
LeftLeg 21.964472 -0.000000 -0.000000
LeftFoot -22.479086 19.653877 -23.021735
LeftToeBase 6.597306 -0.000000 -0.000000
RightUpLeg -8.227842 -10.718552 5.510165
RightLeg 3.922986 -0.000000 -0.000000
RightFoot -11.935505 -5.038670 1.789195
RightToeBase -2.943847 -0.000000 0.000000
198
root 20.095824 32.776606 1.695259 161.063860 -79.428683 -141.774234
Spine -4.680244 13.991744 0.728029
Head 2.204185 -11.466617 6.549906
LeftShoulder -7.320246 25.766069 12.104249
LeftArm 31.457542 31.820284 -63.129592
LeftForeArm 0.953826 -0.000000 19.696880
LeftHand -26.459030 -0.000000 2.119497
LeftHandThumb1 -26.253704 0.000000 33.147579
RightShoulder -12.936082 12.122255 -23.514021
RightArm -1.584128 -39.336618 90.254144
RightForeArm -23.965061 -0.000000 23.981517
RightHand -3.688379 -0.000000 1.439990
RightHandThumb1 -24.326973 -0.000000 -32.862282
LeftUpLeg -28.852851 -2.128141 8.143427
LeftLeg 22.034344 -0.000000 -0.000000
LeftFoot -22.357803 19.777167 -23.242498
LeftToeBase 6.558218 -0.000000 -0.000000
RightUpLeg -8.522540 -10.861045 5.752954
RightLeg 3.473584 -0.000000 -0.000000
RightFoot -11.916973 -4.644473 1.793246
RightToeBase -1.866943 -0.000000 0.000000
199
root 20.277884 32.770533 1.612663 162.471916 -79.077689 -142.954202
Spine -4.645701 14.208774 0.602958
Head 1.961714 -11.142257 6.532710
LeftShoulder -7.196029 25.583510 12.193492
LeftArm 31.522510 31.791647 -63.130963
LeftForeArm 1.091938 -0.000000 19.819133
LeftHand -26.463739 0.000000 2.251873
LeftHandThumb1 -26.253704 0.000000 33.147579
RightShoulder -12.752498 12.281154 -23.502560
RightArm -1.354673 -39.624187 90.248624
RightForeArm -23.853500 -0.000000 23.628592
RightHand -3.688795 0.000000 1.605418
RightHandThumb1 -24.326973 -0.000000 -32.862282
LeftUpLeg -29.395788 -1.640279 8.262354
LeftLeg 22.222698 -0.000000 -0.000000
LeftFoot -22.175113 19.820060 -23.393261
LeftToeBase 6.670336 -0.000000 -0.000000
RightUpLeg -8.955067 -10.880551 6.000694
RightLeg 3.233426 -0.000000 -0.000000
RightFoot -11.976414 -4.261248 1.575788
RightToeBase -0.955448 -0.000000 0.000000
200
root 20.439460 32.762746 1.535740 163.999627 -78.735541 -144.396962
Spine -4.495641 14.387773 0.450537
Head 1.800636 -10.807032 6.476196
LeftShoulder -7.028759 25.367109 12.266051
LeftArm 31.408537 31.662625 -63.260120
LeftForeArm 1.262061 0.000000 20.002543
LeftHand -26.608219 -0.000000 2.576080
LeftHandThumb1 -26.253704 0.000000 33.147579
RightShoulder -12.544927 12.449027 -23.444809
RightArm -1.081786 -39.840507 90.194765
RightForeArm -23.822723 -0.000000 23.236857
RightHand -3.638674 -0.000000 1.982716
RightHandThumb1 -24.326973 -0.000000 -32.862282
LeftUpLeg -29.725945 -1.221618 8.310705
LeftLeg 22.339567 -0.000000 -0.000000
LeftFoot -22.044012 19.889304 -23.590543
LeftToeBase 6.687656 -0.000000 -0.000000
RightUpLeg -9.283957 -11.020632 6.139542
RightLeg 3.130845 -0.000000 -0.000000
RightFoot -12.112228 -3.554987 1.484976
RightToeBase -0.835314 -0.000000 0.000000
201
root 20.614521 32.755018 1.450076 164.941766 -78.440524 -145.221132
Spine -4.333078 14.446532 0.406622
Head 1.616010 -10.379309 6.379076
LeftShoulder -6.962083 25.395220 12.306934
LeftArm 31.816592 31.609725 -63.055021
LeftForeArm 1.437355 -0.000000 20.047628
LeftHand -26.823441 -0.000000 2.413139
LeftHandThumb1 -26.253704 0.000000 33.147579
RightShoulder -12.305399 12.659656 -23.419651
RightArm -0.794274 -40.150668 90.148514
RightForeArm -23.813062 -0.000000 22.830961
RightHand -3.591272 -0.000000 2.179699
RightHandThumb1 -24.326973 -0.000000 -32.862282
LeftUpLeg -30.178050 -0.663072 8.388399
LeftLeg 22.554379 -0.000000 -0.000000
LeftFoot -21.762293 19.818858 -23.610205
LeftToeBase 6.628202 -0.000000 -0.000000
RightUpLeg -9.693620 -11.080602 6.380144
RightLeg 3.108549 -0.000000 -0.000000
RightFoot -12.247598 -3.117380 1.309394
RightToeBase -1.237398 -0.000000 0.000000
202
root 20.783371 32.747009 1.368356 165.730018 -78.123524 -145.919312
Spine -4.141712 14.511653 0.425102
Head 1.451521 -9.985866 6.261480
LeftShoulder -6.834254 25.235810 12.340277
LeftArm 31.861326 31.584143 -63.068835
LeftForeArm 1.653013 -0.000000 20.193763
LeftHand -26.954046 -0.000000 2.525491
LeftHandThumb1 -26.253704 0.000000 33.147579
RightShoulder -12.093514 12.842916 -23.420916
RightArm -0.474982 -40.414865 90.080654
RightForeArm -23.868979 -0.000000 22.428372
RightHand -3.580815 -0.000000 2.375360
RightHandThumb1 -24.326973 -0.000000 -32.862282
LeftUpLeg -30.568992 -0.291508 8.551162
LeftLeg 22.751332 -0.000000 -0.000000
LeftFoot -21.619727 19.885190 -23.823115
LeftToeBase 6.676409 -0.000000 -0.000000
RightUpLeg -10.115009 -11.133497 6.635101
RightLeg 3.218800 -0.000000 -0.000000
RightFoot -12.404616 -2.638368 1.092939
RightToeBase -0.886949 -0.000000 0.000000
203
root 20.946031 32.740835 1.286555 166.584305 -77.733658 -146.747649
Spine -3.907124 14.622450 0.429126
Head 1.362133 -9.577785 6.128283
LeftShoulder -6.762343 25.199031 12.353663
LeftArm 32.134914 31.542344 -62.979261
LeftForeArm 1.794842 -0.000000 20.209551
LeftHand -27.163682 0.000000 2.830394
LeftHandThumb1 -26.253704 0.000000 33.147579
RightShoulder -11.875893 12.977149 -23.347355
RightArm -0.039168 -40.739576 89.892620
RightForeArm -23.769200 -0.000000 22.036530
RightHand -3.567067 -0.000000 2.656871
RightHandThumb1 -24.326973 -0.000000 -32.862282
LeftUpLeg -30.836197 0.052990 8.724611
LeftLeg 22.883389 -0.000000 -0.000000
LeftFoot -21.499169 20.072798 -24.040525
LeftToeBase 6.738631 -0.000000 -0.000000
RightUpLeg -10.486891 -11.058314 6.862054
RightLeg 3.356780 -0.000000 -0.000000
RightFoot -12.542796 -2.264850 0.878627
RightToeBase -0.263880 -0.000000 0.000000
204
root 21.105717 32.734428 1.202455 167.157420 -77.331297 -147.334451
Spine -3.597483 14.698284 0.517308
Head 1.245583 -9.194000 5.988945
LeftShoulder -6.686455 25.089302 12.347255
LeftArm 32.302922 31.538985 -62.908708
LeftForeArm 1.891301 -0.000000 20.319283
LeftHand -27.285304 -0.000000 3.288281
LeftHandThumb1 -26.253704 0.000000 33.147579
RightShoulder -11.661264 13.177708 -23.327470
RightArm 0.367562 -41.029720 89.764259
RightForeArm -23.712459 0.000000 21.594219
RightHand -3.554647 -0.000000 2.878960
RightHandThumb1 -24.326973 -0.000000 -32.862282
LeftUpLeg -31.127963 0.598021 8.873781
LeftLeg 23.162506 -0.000000 -0.000000
LeftFoot -21.304920 20.041932 -24.221041
LeftToeBase 6.693238 -0.000000 -0.000000
RightUpLeg -10.796682 -10.894031 7.124632
RightLeg 3.482688 -0.000000 -0.000000
RightFoot -12.657965 -2.037558 0.567106
RightToeBase -0.074952 -0.000000 0.000000
205
root 21.262363 32.729419 1.118012 167.482582 -76.925465 -147.701671
Spine -3.268362 14.720044 0.681770
Head 1.179608 -8.766696 5.802195
LeftShoulder -6.679450 25.033691 12.269745
LeftArm 32.602849 31.631164 -62.692636
LeftForeArm 1.925172 0.000000 20.373374
LeftHand -27.322615 -0.000000 3.501475
LeftHandThumb1 -26.253704 0.000000 33.147579
RightShoulder -11.406508 13.369420 -23.282505
RightArm 0.804222 -41.307547 89.576581
RightForeArm -23.717899 -0.000000 21.173864
RightHand -3.521539 0.000000 3.065534
RightHandThumb1 -24.326973 -0.000000 -32.862282
LeftUpLeg -31.386577 1.098997 9.075140
LeftLeg 23.443784 -0.000000 -0.000000
LeftFoot -21.119916 20.083496 -24.390382
LeftToeBase 6.679715 -0.000000 -0.000000
RightUpLeg -11.054710 -10.661491 7.417690
RightLeg 3.599408 -0.000000 -0.000000
RightFoot -12.717780 -1.896828 0.213154
RightToeBase -0.362553 -0.000000 0.000000
206
root 21.416266 32.724537 1.027970 167.564334 -76.520347 -147.867548
Spine -2.887885 14.763967 0.888067
Head 1.123015 -8.353852 5.642478
LeftShoulder -6.593219 25.012279 12.246852
LeftArm 32.866997 31.571390 -62.612791
LeftForeArm 2.134038 -0.000000 20.439518
LeftHand -27.593601 0.000000 3.606072
LeftHandThumb1 -26.253704 0.000000 33.147579
RightShoulder -11.217759 13.564550 -23.238702
RightArm 1.216918 -41.616950 89.368785
RightForeArm -23.680783 0.000000 20.852559
RightHand -3.506957 0.000000 3.349602
RightHandThumb1 -24.326973 -0.000000 -32.862282
LeftUpLeg -31.625851 1.673707 9.294224
LeftLeg 23.787762 -0.000000 -0.000000
LeftFoot -20.920571 20.053293 -24.600439
LeftToeBase 6.666231 -0.000000 -0.000000
RightUpLeg -11.232770 -10.385444 7.753028
RightLeg 3.670373 -0.000000 -0.000000
RightFoot -12.712086 -1.879196 -0.194819
RightToeBase -0.445825 -0.000000 0.000000
207
root 21.565752 32.719440 0.942186 167.542381 -76.165076 -147.935392
Spine -2.498449 14.730664 1.143723
Head 1.069263 -7.933657 5.407578
LeftShoulder -6.542936 24.942984 12.190587
LeftArm 33.122329 31.614242 -62.498553
LeftForeArm 2.214929 -0.000000 20.458036
LeftHand -27.565647 0.000000 3.772671
LeftHandThumb1 -26.253704 0.000000 33.147579
RightShoulder -11.020838 13.715992 -23.235383
RightArm 1.670924 -41.822430 89.171325
RightForeArm -23.770462 -0.000000 20.521651
RightHand -3.433175 -0.000000 3.561942
RightHandThumb1 -24.326973 -0.000000 -32.862282
LeftUpLeg -31.850115 2.145945 9.531291
LeftLeg 24.081542 -0.000000 -0.000000
LeftFoot -20.678597 20.186717 -24.664217
LeftToeBase 6.651313 -0.000000 -0.000000
RightUpLeg -11.402601 -10.152727 8.084549
RightLeg 3.766681 -0.000000 -0.000000
RightFoot -12.756937 -1.865867 -0.508664
RightToeBase -0.049846 -0.000000 0.000000
